<svg xmlns="http://www.w3.org/2000/svg" width="1000" height="438" viewBox="0 14 1000 438" role="img" aria-label="GDAL create options produce thousands of valid GeoTIFFs">
<style>
.mono{font-family:'Cascadia Code','Fira Code','Consolas',monospace;}
.sans{font-family:'League Spartan','Futura','Century Gothic',system-ui,sans-serif;}
</style>
<rect width="1000" height="480" fill="#FFFFFF"/>
<g><line x1="470" y1="95" x2="800" y2="79.0" stroke="#CBD5E1" stroke-width="0.6" opacity="0.7"/><line x1="470" y1="95" x2="800" y2="84.3" stroke="#CBD5E1" stroke-width="0.6" opacity="0.7"/><line x1="470" y1="95" x2="800" y2="89.7" stroke="#CBD5E1" stroke-width="0.6" opacity="0.7"/><line x1="470" y1="95" x2="800" y2="95.0" stroke="#CBD5E1" stroke-width="0.6" opacity="0.7"/><line x1="470" y1="95" x2="800" y2="100.3" stroke="#CBD5E1" stroke-width="0.6" opacity="0.7"/><line x1="470" y1="95" x2="800" y2="105.7" stroke="#CBD5E1" stroke-width="0.6" opacity="0.7"/><line x1="470" y1="95" x2="800" y2="111.0" stroke="#CBD5E1" stroke-width="0.6" opacity="0.7"/><line x1="470" y1="110" x2="800" y2="94.0" stroke="#CBD5E1" stroke-width="0.6" opacity="0.7"/><line x1="470" y1="110" x2="800" y2="99.3" stroke="#CBD5E1" stroke-width="0.6" opacity="0.7"/><line x1="470" y1="110" x2="800" y2="104.7" stroke="#CBD5E1" stroke-width="0.6" opacity="0.7"/><line x1="470" y1="110" x2="800" y2="110.0" stroke="#CBD5E1" stroke-width="0.6" opacity="0.7"/><line x1="470" y1="110" x2="800" y2="115.3" stroke="#CBD5E1" stroke-width="0.6" opacity="0.7"/><line x1="470" y1="110" x2="800" y2="120.7" stroke="#CBD5E1" stroke-width="0.6" opacity="0.7"/><line x1="470" y1="110" x2="800" y2="126.0" stroke="#CBD5E1" stroke-width="0.6" opacity="0.7"/><line x1="470" y1="125" x2="800" y2="109.0" stroke="#CBD5E1" stroke-width="0.6" opacity="0.7"/><line x1="470" y1="125" x2="800" y2="114.3" stroke="#CBD5E1" stroke-width="0.6" opacity="0.7"/><line x1="470" y1="125" x2="800" y2="119.7" stroke="#CBD5E1" stroke-width="0.6" opacity="0.7"/><line x1="470" y1="125" x2="800" y2="125.0" stroke="#CBD5E1" stroke-width="0.6" opacity="0.7"/><line x1="470" y1="125" x2="800" y2="130.3" stroke="#CBD5E1" stroke-width="0.6" opacity="0.7"/><line x1="470" y1="125" x2="800" y2="135.7" stroke="#CBD5E1" stroke-width="0.6" opacity="0.7"/><line x1="470" y1="125" x2="800" y2="141.0" stroke="#CBD5E1" stroke-width="0.6" opacity="0.7"/><line x1="470" y1="145" x2="800" y2="129.0" stroke="#CBD5E1" stroke-width="0.6" opacity="0.7"/><line x1="470" y1="145" x2="800" y2="134.3" stroke="#CBD5E1" stroke-width="0.6" opacity="0.7"/><line x1="470" y1="145" x2="800" y2="139.7" stroke="#CBD5E1" stroke-width="0.6" opacity="0.7"/><line x1="470" y1="145" x2="800" y2="145.0" stroke="#CBD5E1" stroke-width="0.6" opacity="0.7"/><line x1="470" y1="145" x2="800" y2="150.3" stroke="#CBD5E1" stroke-width="0.6" opacity="0.7"/><line x1="470" y1="145" x2="800" y2="155.7" stroke="#CBD5E1" stroke-width="0.6" opacity="0.7"/><line x1="470" y1="145" x2="800" y2="161.0" stroke="#CBD5E1" stroke-width="0.6" opacity="0.7"/><line x1="470" y1="160" x2="800" y2="144.0" stroke="#CBD5E1" stroke-width="0.6" opacity="0.7"/><line x1="470" y1="160" x2="800" y2="149.3" stroke="#CBD5E1" stroke-width="0.6" opacity="0.7"/><line x1="470" y1="160" x2="800" y2="154.7" stroke="#CBD5E1" stroke-width="0.6" opacity="0.7"/><line x1="470" y1="160" x2="800" y2="160.0" stroke="#CBD5E1" stroke-width="0.6" opacity="0.7"/><line x1="470" y1="160" x2="800" y2="165.3" stroke="#CBD5E1" stroke-width="0.6" opacity="0.7"/><line x1="470" y1="160" x2="800" y2="170.7" stroke="#CBD5E1" stroke-width="0.6" opacity="0.7"/><line x1="470" y1="160" x2="800" y2="176.0" stroke="#CBD5E1" stroke-width="0.6" opacity="0.7"/><line x1="470" y1="175" x2="800" y2="159.0" stroke="#CBD5E1" stroke-width="0.6" opacity="0.7"/><line x1="470" y1="175" x2="800" y2="164.3" stroke="#CBD5E1" stroke-width="0.6" opacity="0.7"/><line x1="470" y1="175" x2="800" y2="169.7" stroke="#CBD5E1" stroke-width="0.6" opacity="0.7"/><line x1="470" y1="175" x2="800" y2="175.0" stroke="#CBD5E1" stroke-width="0.6" opacity="0.7"/><line x1="470" y1="175" x2="800" y2="180.3" stroke="#CBD5E1" stroke-width="0.6" opacity="0.7"/><line x1="470" y1="175" x2="800" y2="185.7" stroke="#CBD5E1" stroke-width="0.6" opacity="0.7"/><line x1="470" y1="175" x2="800" y2="191.0" stroke="#CBD5E1" stroke-width="0.6" opacity="0.7"/><line x1="470" y1="195" x2="800" y2="179.0" stroke="#CBD5E1" stroke-width="0.6" opacity="0.7"/><line x1="470" y1="195" x2="800" y2="184.3" stroke="#CBD5E1" stroke-width="0.6" opacity="0.7"/><line x1="470" y1="195" x2="800" y2="189.7" stroke="#CBD5E1" stroke-width="0.6" opacity="0.7"/><line x1="470" y1="195" x2="800" y2="195.0" stroke="#CBD5E1" stroke-width="0.6" opacity="0.7"/><line x1="470" y1="195" x2="800" y2="200.3" stroke="#CBD5E1" stroke-width="0.6" opacity="0.7"/><line x1="470" y1="195" x2="800" y2="205.7" stroke="#CBD5E1" stroke-width="0.6" opacity="0.7"/><line x1="470" y1="195" x2="800" y2="211.0" stroke="#CBD5E1" stroke-width="0.6" opacity="0.7"/><line x1="470" y1="210" x2="800" y2="194.0" stroke="#CBD5E1" stroke-width="0.6" opacity="0.7"/><line x1="470" y1="210" x2="800" y2="199.3" stroke="#CBD5E1" stroke-width="0.6" opacity="0.7"/><line x1="470" y1="210" x2="800" y2="204.7" stroke="#CBD5E1" stroke-width="0.6" opacity="0.7"/><line x1="470" y1="210" x2="800" y2="210.0" stroke="#CBD5E1" stroke-width="0.6" opacity="0.7"/><line x1="470" y1="210" x2="800" y2="215.3" stroke="#CBD5E1" stroke-width="0.6" opacity="0.7"/><line x1="470" y1="210" x2="800" y2="220.7" stroke="#CBD5E1" stroke-width="0.6" opacity="0.7"/><line x1="470" y1="210" x2="800" y2="226.0" stroke="#CBD5E1" stroke-width="0.6" opacity="0.7"/><line x1="470" y1="225" x2="800" y2="209.0" stroke="#CBD5E1" stroke-width="0.6" opacity="0.7"/><line x1="470" y1="225" x2="800" y2="214.3" stroke="#CBD5E1" stroke-width="0.6" opacity="0.7"/><line x1="470" y1="225" x2="800" y2="219.7" stroke="#CBD5E1" stroke-width="0.6" opacity="0.7"/><line x1="470" y1="225" x2="800" y2="225.0" stroke="#CBD5E1" stroke-width="0.6" opacity="0.7"/><line x1="470" y1="225" x2="800" y2="230.3" stroke="#CBD5E1" stroke-width="0.6" opacity="0.7"/><line x1="470" y1="225" x2="800" y2="235.7" stroke="#CBD5E1" stroke-width="0.6" opacity="0.7"/><line x1="470" y1="225" x2="800" y2="241.0" stroke="#CBD5E1" stroke-width="0.6" opacity="0.7"/><line x1="470" y1="245" x2="800" y2="229.0" stroke="#CBD5E1" stroke-width="0.6" opacity="0.7"/><line x1="470" y1="245" x2="800" y2="234.3" stroke="#CBD5E1" stroke-width="0.6" opacity="0.7"/><line x1="470" y1="245" x2="800" y2="239.7" stroke="#CBD5E1" stroke-width="0.6" opacity="0.7"/><line x1="470" y1="245" x2="800" y2="245.0" stroke="#CBD5E1" stroke-width="0.6" opacity="0.7"/><line x1="470" y1="245" x2="800" y2="250.3" stroke="#CBD5E1" stroke-width="0.6" opacity="0.7"/><line x1="470" y1="245" x2="800" y2="255.7" stroke="#CBD5E1" stroke-width="0.6" opacity="0.7"/><line x1="470" y1="245" x2="800" y2="261.0" stroke="#CBD5E1" stroke-width="0.6" opacity="0.7"/><line x1="470" y1="260" x2="800" y2="244.0" stroke="#CBD5E1" stroke-width="0.6" opacity="0.7"/><line x1="470" y1="260" x2="800" y2="249.3" stroke="#CBD5E1" stroke-width="0.6" opacity="0.7"/><line x1="470" y1="260" x2="800" y2="254.7" stroke="#CBD5E1" stroke-width="0.6" opacity="0.7"/><line x1="470" y1="260" x2="800" y2="260.0" stroke="#CBD5E1" stroke-width="0.6" opacity="0.7"/><line x1="470" y1="260" x2="800" y2="265.3" stroke="#CBD5E1" stroke-width="0.6" opacity="0.7"/><line x1="470" y1="260" x2="800" y2="270.7" stroke="#CBD5E1" stroke-width="0.6" opacity="0.7"/><line x1="470" y1="260" x2="800" y2="276.0" stroke="#CBD5E1" stroke-width="0.6" opacity="0.7"/><line x1="470" y1="275" x2="800" y2="259.0" stroke="#CBD5E1" stroke-width="0.6" opacity="0.7"/><line x1="470" y1="275" x2="800" y2="264.3" stroke="#CBD5E1" stroke-width="0.6" opacity="0.7"/><line x1="470" y1="275" x2="800" y2="269.7" stroke="#CBD5E1" stroke-width="0.6" opacity="0.7"/><line x1="470" y1="275" x2="800" y2="275.0" stroke="#CBD5E1" stroke-width="0.6" opacity="0.7"/><line x1="470" y1="275" x2="800" y2="280.3" stroke="#CBD5E1" stroke-width="0.6" opacity="0.7"/><line x1="470" y1="275" x2="800" y2="285.7" stroke="#CBD5E1" stroke-width="0.6" opacity="0.7"/><line x1="470" y1="275" x2="800" y2="291.0" stroke="#CBD5E1" stroke-width="0.6" opacity="0.7"/><line x1="470" y1="295" x2="800" y2="279.0" stroke="#CBD5E1" stroke-width="0.6" opacity="0.7"/><line x1="470" y1="295" x2="800" y2="284.3" stroke="#CBD5E1" stroke-width="0.6" opacity="0.7"/><line x1="470" y1="295" x2="800" y2="289.7" stroke="#CBD5E1" stroke-width="0.6" opacity="0.7"/><line x1="470" y1="295" x2="800" y2="295.0" stroke="#CBD5E1" stroke-width="0.6" opacity="0.7"/><line x1="470" y1="295" x2="800" y2="300.3" stroke="#CBD5E1" stroke-width="0.6" opacity="0.7"/><line x1="470" y1="295" x2="800" y2="305.7" stroke="#CBD5E1" stroke-width="0.6" opacity="0.7"/><line x1="470" y1="295" x2="800" y2="311.0" stroke="#CBD5E1" stroke-width="0.6" opacity="0.7"/><line x1="470" y1="310" x2="800" y2="294.0" stroke="#CBD5E1" stroke-width="0.6" opacity="0.7"/><line x1="470" y1="310" x2="800" y2="299.3" stroke="#CBD5E1" stroke-width="0.6" opacity="0.7"/><line x1="470" y1="310" x2="800" y2="304.7" stroke="#CBD5E1" stroke-width="0.6" opacity="0.7"/><line x1="470" y1="310" x2="800" y2="310.0" stroke="#CBD5E1" stroke-width="0.6" opacity="0.7"/><line x1="470" y1="310" x2="800" y2="315.3" stroke="#CBD5E1" stroke-width="0.6" opacity="0.7"/><line x1="470" y1="310" x2="800" y2="320.7" stroke="#CBD5E1" stroke-width="0.6" opacity="0.7"/><line x1="470" y1="310" x2="800" y2="326.0" stroke="#CBD5E1" stroke-width="0.6" opacity="0.7"/><line x1="470" y1="325" x2="800" y2="309.0" stroke="#CBD5E1" stroke-width="0.6" opacity="0.7"/><line x1="470" y1="325" x2="800" y2="314.3" stroke="#CBD5E1" stroke-width="0.6" opacity="0.7"/><line x1="470" y1="325" x2="800" y2="319.7" stroke="#CBD5E1" stroke-width="0.6" opacity="0.7"/><line x1="470" y1="325" x2="800" y2="325.0" stroke="#CBD5E1" stroke-width="0.6" opacity="0.7"/><line x1="470" y1="325" x2="800" y2="330.3" stroke="#CBD5E1" stroke-width="0.6" opacity="0.7"/><line x1="470" y1="325" x2="800" y2="335.7" stroke="#CBD5E1" stroke-width="0.6" opacity="0.7"/><line x1="470" y1="325" x2="800" y2="341.0" stroke="#CBD5E1" stroke-width="0.6" opacity="0.7"/><line x1="470" y1="345" x2="800" y2="329.0" stroke="#CBD5E1" stroke-width="0.6" opacity="0.7"/><line x1="470" y1="345" x2="800" y2="334.3" stroke="#CBD5E1" stroke-width="0.6" opacity="0.7"/><line x1="470" y1="345" x2="800" y2="339.7" stroke="#CBD5E1" stroke-width="0.6" opacity="0.7"/><line x1="470" y1="345" x2="800" y2="345.0" stroke="#CBD5E1" stroke-width="0.6" opacity="0.7"/><line x1="470" y1="345" x2="800" y2="350.3" stroke="#CBD5E1" stroke-width="0.6" opacity="0.7"/><line x1="470" y1="345" x2="800" y2="355.7" stroke="#CBD5E1" stroke-width="0.6" opacity="0.7"/><line x1="470" y1="345" x2="800" y2="361.0" stroke="#CBD5E1" stroke-width="0.6" opacity="0.7"/><line x1="470" y1="360" x2="800" y2="344.0" stroke="#CBD5E1" stroke-width="0.6" opacity="0.7"/><line x1="470" y1="360" x2="800" y2="349.3" stroke="#CBD5E1" stroke-width="0.6" opacity="0.7"/><line x1="470" y1="360" x2="800" y2="354.7" stroke="#CBD5E1" stroke-width="0.6" opacity="0.7"/><line x1="470" y1="360" x2="800" y2="360.0" stroke="#CBD5E1" stroke-width="0.6" opacity="0.7"/><line x1="470" y1="360" x2="800" y2="365.3" stroke="#CBD5E1" stroke-width="0.6" opacity="0.7"/><line x1="470" y1="360" x2="800" y2="370.7" stroke="#CBD5E1" stroke-width="0.6" opacity="0.7"/><line x1="470" y1="360" x2="800" y2="376.0" stroke="#CBD5E1" stroke-width="0.6" opacity="0.7"/><line x1="470" y1="375" x2="800" y2="359.0" stroke="#CBD5E1" stroke-width="0.6" opacity="0.7"/><line x1="470" y1="375" x2="800" y2="364.3" stroke="#CBD5E1" stroke-width="0.6" opacity="0.7"/><line x1="470" y1="375" x2="800" y2="369.7" stroke="#CBD5E1" stroke-width="0.6" opacity="0.7"/><line x1="470" y1="375" x2="800" y2="375.0" stroke="#CBD5E1" stroke-width="0.6" opacity="0.7"/><line x1="470" y1="375" x2="800" y2="380.3" stroke="#CBD5E1" stroke-width="0.6" opacity="0.7"/><line x1="470" y1="375" x2="800" y2="385.7" stroke="#CBD5E1" stroke-width="0.6" opacity="0.7"/><line x1="470" y1="375" x2="800" y2="391.0" stroke="#CBD5E1" stroke-width="0.6" opacity="0.7"/><line x1="470" y1="395" x2="800" y2="379.0" stroke="#CBD5E1" stroke-width="0.6" opacity="0.7"/><line x1="470" y1="395" x2="800" y2="384.3" stroke="#CBD5E1" stroke-width="0.6" opacity="0.7"/><line x1="470" y1="395" x2="800" y2="389.7" stroke="#CBD5E1" stroke-width="0.6" opacity="0.7"/><line x1="470" y1="395" x2="800" y2="395.0" stroke="#CBD5E1" stroke-width="0.6" opacity="0.7"/><line x1="470" y1="395" x2="800" y2="400.3" stroke="#CBD5E1" stroke-width="0.6" opacity="0.7"/><line x1="470" y1="395" x2="800" y2="405.7" stroke="#CBD5E1" stroke-width="0.6" opacity="0.7"/><line x1="470" y1="395" x2="800" y2="411.0" stroke="#CBD5E1" stroke-width="0.6" opacity="0.7"/><line x1="470" y1="410" x2="800" y2="394.0" stroke="#CBD5E1" stroke-width="0.6" opacity="0.7"/><line x1="470" y1="410" x2="800" y2="399.3" stroke="#CBD5E1" stroke-width="0.6" opacity="0.7"/><line x1="470" y1="410" x2="800" y2="404.7" stroke="#CBD5E1" stroke-width="0.6" opacity="0.7"/><line x1="470" y1="410" x2="800" y2="410.0" stroke="#CBD5E1" stroke-width="0.6" opacity="0.7"/><line x1="470" y1="410" x2="800" y2="415.3" stroke="#CBD5E1" stroke-width="0.6" opacity="0.7"/><line x1="470" y1="410" x2="800" y2="420.7" stroke="#CBD5E1" stroke-width="0.6" opacity="0.7"/><line x1="470" y1="410" x2="800" y2="426.0" stroke="#CBD5E1" stroke-width="0.6" opacity="0.7"/><line x1="470" y1="425" x2="800" y2="409.0" stroke="#CBD5E1" stroke-width="0.6" opacity="0.7"/><line x1="470" y1="425" x2="800" y2="414.3" stroke="#CBD5E1" stroke-width="0.6" opacity="0.7"/><line x1="470" y1="425" x2="800" y2="419.7" stroke="#CBD5E1" stroke-width="0.6" opacity="0.7"/><line x1="470" y1="425" x2="800" y2="425.0" stroke="#CBD5E1" stroke-width="0.6" opacity="0.7"/><line x1="470" y1="425" x2="800" y2="430.3" stroke="#CBD5E1" stroke-width="0.6" opacity="0.7"/><line x1="470" y1="425" x2="800" y2="435.7" stroke="#CBD5E1" stroke-width="0.6" opacity="0.7"/><line x1="470" y1="425" x2="800" y2="441.0" stroke="#CBD5E1" stroke-width="0.6" opacity="0.7"/></g>
<line x1="60" y1="260" x2="250" y2="110" stroke="#94A3B8" stroke-width="1.6"/>
<line x1="60" y1="260" x2="250" y2="160" stroke="#94A3B8" stroke-width="1.6"/>
<line x1="60" y1="260" x2="250" y2="210" stroke="#94A3B8" stroke-width="1.6"/>
<line x1="60" y1="260" x2="250" y2="260" stroke="#94A3B8" stroke-width="1.6"/>
<line x1="60" y1="260" x2="250" y2="310" stroke="#94A3B8" stroke-width="1.6"/>
<line x1="60" y1="260" x2="250" y2="360" stroke="#94A3B8" stroke-width="1.6"/>
<line x1="60" y1="260" x2="250" y2="410" stroke="#94A3B8" stroke-width="1.6"/>
<line x1="250" y1="110" x2="470" y2="95" stroke="#94A3B8" stroke-width="1.0"/>
<line x1="250" y1="110" x2="470" y2="110" stroke="#94A3B8" stroke-width="1.0"/>
<line x1="250" y1="110" x2="470" y2="125" stroke="#94A3B8" stroke-width="1.0"/>
<line x1="250" y1="160" x2="470" y2="145" stroke="#94A3B8" stroke-width="1.0"/>
<line x1="250" y1="160" x2="470" y2="160" stroke="#94A3B8" stroke-width="1.0"/>
<line x1="250" y1="160" x2="470" y2="175" stroke="#94A3B8" stroke-width="1.0"/>
<line x1="250" y1="210" x2="470" y2="195" stroke="#94A3B8" stroke-width="1.0"/>
<line x1="250" y1="210" x2="470" y2="210" stroke="#94A3B8" stroke-width="1.0"/>
<line x1="250" y1="210" x2="470" y2="225" stroke="#94A3B8" stroke-width="1.0"/>
<line x1="250" y1="260" x2="470" y2="245" stroke="#94A3B8" stroke-width="1.0"/>
<line x1="250" y1="260" x2="470" y2="260" stroke="#94A3B8" stroke-width="1.0"/>
<line x1="250" y1="260" x2="470" y2="275" stroke="#94A3B8" stroke-width="1.0"/>
<line x1="250" y1="310" x2="470" y2="295" stroke="#94A3B8" stroke-width="1.0"/>
<line x1="250" y1="310" x2="470" y2="310" stroke="#94A3B8" stroke-width="1.0"/>
<line x1="250" y1="310" x2="470" y2="325" stroke="#94A3B8" stroke-width="1.0"/>
<line x1="250" y1="360" x2="470" y2="345" stroke="#94A3B8" stroke-width="1.0"/>
<line x1="250" y1="360" x2="470" y2="360" stroke="#94A3B8" stroke-width="1.0"/>
<line x1="250" y1="360" x2="470" y2="375" stroke="#94A3B8" stroke-width="1.0"/>
<line x1="250" y1="410" x2="470" y2="395" stroke="#94A3B8" stroke-width="1.0"/>
<line x1="250" y1="410" x2="470" y2="410" stroke="#94A3B8" stroke-width="1.0"/>
<line x1="250" y1="410" x2="470" y2="425" stroke="#94A3B8" stroke-width="1.0"/>
<circle cx="60" cy="260" r="5" fill="#1A1A1A"/>
<circle cx="250" cy="110" r="6" fill="#4E04EB"/>
<circle cx="250" cy="160" r="6" fill="#4E04EB"/>
<circle cx="250" cy="210" r="6" fill="#4E04EB"/>
<circle cx="250" cy="260" r="6" fill="#4E04EB"/>
<circle cx="250" cy="310" r="6" fill="#4E04EB"/>
<circle cx="250" cy="360" r="6" fill="#4E04EB"/>
<circle cx="250" cy="410" r="6" fill="#4E04EB"/>
<circle cx="470" cy="95" r="4" fill="#F8CE00" stroke="#1A1A1A" stroke-width="0.5"/>
<circle cx="470" cy="110" r="4" fill="#F8CE00" stroke="#1A1A1A" stroke-width="0.5"/>
<circle cx="470" cy="125" r="4" fill="#F8CE00" stroke="#1A1A1A" stroke-width="0.5"/>
<circle cx="470" cy="145" r="4" fill="#F8CE00" stroke="#1A1A1A" stroke-width="0.5"/>
<circle cx="470" cy="160" r="4" fill="#F8CE00" stroke="#1A1A1A" stroke-width="0.5"/>
<circle cx="470" cy="175" r="4" fill="#F8CE00" stroke="#1A1A1A" stroke-width="0.5"/>
<circle cx="470" cy="195" r="4" fill="#F8CE00" stroke="#1A1A1A" stroke-width="0.5"/>
<circle cx="470" cy="210" r="4" fill="#F8CE00" stroke="#1A1A1A" stroke-width="0.5"/>
<circle cx="470" cy="225" r="4" fill="#F8CE00" stroke="#1A1A1A" stroke-width="0.5"/>
<circle cx="470" cy="245" r="4" fill="#F8CE00" stroke="#1A1A1A" stroke-width="0.5"/>
<circle cx="470" cy="260" r="4" fill="#F8CE00" stroke="#1A1A1A" stroke-width="0.5"/>
<circle cx="470" cy="275" r="4" fill="#F8CE00" stroke="#1A1A1A" stroke-width="0.5"/>
<circle cx="470" cy="295" r="4" fill="#F8CE00" stroke="#1A1A1A" stroke-width="0.5"/>
<circle cx="470" cy="310" r="4" fill="#F8CE00" stroke="#1A1A1A" stroke-width="0.5"/>
<circle cx="470" cy="325" r="4" fill="#F8CE00" stroke="#1A1A1A" stroke-width="0.5"/>
<circle cx="470" cy="345" r="4" fill="#F8CE00" stroke="#1A1A1A" stroke-width="0.5"/>
<circle cx="470" cy="360" r="4" fill="#F8CE00" stroke="#1A1A1A" stroke-width="0.5"/>
<circle cx="470" cy="375" r="4" fill="#F8CE00" stroke="#1A1A1A" stroke-width="0.5"/>
<circle cx="470" cy="395" r="4" fill="#F8CE00" stroke="#1A1A1A" stroke-width="0.5"/>
<circle cx="470" cy="410" r="4" fill="#F8CE00" stroke="#1A1A1A" stroke-width="0.5"/>
<circle cx="470" cy="425" r="4" fill="#F8CE00" stroke="#1A1A1A" stroke-width="0.5"/>
<text class="sans" x="60" y="284" text-anchor="middle" font-size="12" fill="#6B7280">one array</text>
<text class="mono" x="250" y="40" text-anchor="middle" font-size="13" fill="#1A1A1A">COMPRESS <tspan fill="#4E04EB">&#215;7</tspan></text>
<text class="mono" x="470" y="40" text-anchor="middle" font-size="13" fill="#1A1A1A">INTERLEAVE <tspan fill="#CC9A00">&#215;3</tspan></text>
<text class="mono" x="640" y="30" text-anchor="middle" font-size="10.5" fill="#9CA3AF">PREDICTOR &#183; BIGTIFF &#183; OVERVIEWS</text>
<text class="mono" x="640" y="46" text-anchor="middle" font-size="10.5" fill="#9CA3AF">BLOCKSIZE &#183; SPARSE</text>
<line x1="815" y1="110" x2="815" y2="410" stroke="#CBD5E1" stroke-width="1.5"/>
<line x1="818" y1="260" x2="842" y2="260" stroke="#9CA3AF" stroke-width="1.5"/>
<path d="M842 260 l-8 -4 v8 z" fill="#9CA3AF"/>
<text class="sans" x="905" y="252" text-anchor="middle" font-size="42" font-weight="700" fill="#FE6B37">&#8776;2,016</text>
<text class="sans" x="905" y="278" text-anchor="middle" font-size="14" fill="#1A1A1A">valid GeoTIFFs</text>
<text class="sans" x="905" y="300" text-anchor="middle" font-size="10.5" fill="#9CA3AF">before dtype or</text>
<text class="sans" x="905" y="314" text-anchor="middle" font-size="10.5" fill="#9CA3AF">compression levels</text>
</svg>